<?xml version="1.0" standalone="no"?>
<svg xmlns:xlink="http://www.w3.org/1999/xlink" id="wave" style="transform:rotate(0deg); transition: 0.3s" viewBox="0 0 1440 490" version="1.1" xmlns="http://www.w3.org/2000/svg"><defs><linearGradient id="sw-gradient-0" x1="0" x2="0" y1="1" y2="0"><stop stop-color="rgba(49, 189, 123, 1)" offset="0%"/><stop stop-color="rgba(49, 189, 123, 1)" offset="100%"/></linearGradient></defs><path style="transform:translate(0, 0px); opacity:1" fill="url(#sw-gradient-0)" d="M0,196L26.7,204.2C53.3,212,107,229,160,236.8C213.3,245,267,245,320,253.2C373.3,261,427,278,480,261.3C533.3,245,587,196,640,179.7C693.3,163,747,180,800,196C853.3,212,907,229,960,220.5C1013.3,212,1067,180,1120,147C1173.3,114,1227,82,1280,65.3C1333.3,49,1387,49,1440,81.7C1493.3,114,1547,180,1600,228.7C1653.3,278,1707,310,1760,294C1813.3,278,1867,212,1920,204.2C1973.3,196,2027,245,2080,261.3C2133.3,278,2187,261,2240,220.5C2293.3,180,2347,114,2400,147C2453.3,180,2507,310,2560,375.7C2613.3,441,2667,441,2720,416.5C2773.3,392,2827,343,2880,302.2C2933.3,261,2987,229,3040,179.7C3093.3,131,3147,65,3200,32.7C3253.3,0,3307,0,3360,0C3413.3,0,3467,0,3520,24.5C3573.3,49,3627,98,3680,98C3733.3,98,3787,49,3813,24.5L3840,0L3840,490L3813.3,490C3786.7,490,3733,490,3680,490C3626.7,490,3573,490,3520,490C3466.7,490,3413,490,3360,490C3306.7,490,3253,490,3200,490C3146.7,490,3093,490,3040,490C2986.7,490,2933,490,2880,490C2826.7,490,2773,490,2720,490C2666.7,490,2613,490,2560,490C2506.7,490,2453,490,2400,490C2346.7,490,2293,490,2240,490C2186.7,490,2133,490,2080,490C2026.7,490,1973,490,1920,490C1866.7,490,1813,490,1760,490C1706.7,490,1653,490,1600,490C1546.7,490,1493,490,1440,490C1386.7,490,1333,490,1280,490C1226.7,490,1173,490,1120,490C1066.7,490,1013,490,960,490C906.7,490,853,490,800,490C746.7,490,693,490,640,490C586.7,490,533,490,480,490C426.7,490,373,490,320,490C266.7,490,213,490,160,490C106.7,490,53,490,27,490L0,490Z"/></svg>